<svg xmlns:mydata="http://www.w3.org/2000/svg" mydata:contrastcolor="fffae5" mydata:template="Contrast"
    mydata:presentation="2.5" mydata:layouttype="undefined" mydata:specialfontid="undefined" mydata:id1="063"
    mydata:id2="014" mydata:companyname="React Native Web App" mydata:companytagline="No longer than a minute !"
    version="1.1" xmlns="http://www.w3.org/2000/svg" xmlns:xlink="http://www.w3.org/1999/xlink" viewBox="0 0 550 470"
    class="svg-keychain" style="width: auto;height: 5%;top: 20.8%;left: 82.05%;">
    <g fill="#f0b323" fill-rule="none" stroke="none" stroke-width="1" stroke-linecap="butt" stroke-linejoin="miter"
        stroke-miterlimit="10" stroke-dasharray="" stroke-dashoffset="0" font-family="none" font-weight="none"
        font-size="none" text-anchor="none" style="mix-blend-mode: normal; fill: rgb(0, 0, 0); opacity: 1;">
        <g data-paper-data="{&quot;isGlobalGroup&quot;:true}" style="fill: rgb(0, 0, 0); opacity: 1;">
            <g data-paper-data="{&quot;isBesideStackedLine&quot;:true,&quot;isStacked&quot;:true,&quot;isSecondaryText&quot;:true}"
                fill-rule="nonzero" style="fill: rgb(0, 0, 0); opacity: 1;">
                <path
                    d="M379.1972,240.40586v6.57159c-0.04019,-0.05168 -0.12919,-0.14642 -0.267,-0.28422c-0.13781,-0.13781 -0.30719,-0.30288 -0.50816,-0.49524c-0.20097,-0.19235 -0.42346,-0.4048 -0.66749,-0.63735c-0.24403,-0.23255 -0.49237,-0.46796 -0.74501,-0.70625c-0.25264,-0.23829 -0.49954,-0.47227 -0.7407,-0.70195c-0.24116,-0.22968 -0.46079,-0.44069 -0.65888,-0.63304c-0.1981,-0.19235 -0.36461,-0.356 -0.49954,-0.49093c-0.13493,-0.13493 -0.2225,-0.22824 -0.26269,-0.27992c-0.00574,-0.01148 -0.02871,-0.04163 -0.0689,-0.09043c-0.04019,-0.04881 -0.07464,-0.09331 -0.10335,-0.1335l0.02584,0.27561v3.88439h-1.05077v-6.56298c0.04019,0.05168 0.12919,0.14498 0.267,0.27992c0.13781,0.13493 0.30719,0.29714 0.50816,0.48662c0.20097,0.18948 0.42346,0.39619 0.66749,0.62012c0.24403,0.22393 0.49237,0.45217 0.74501,0.68472c0.25264,0.23255 0.49954,0.46222 0.7407,0.68903c0.24116,0.2268 0.46222,0.43351 0.66319,0.62012c0.20097,0.18661 0.36892,0.34595 0.50385,0.47801c0.13493,0.13206 0.2225,0.22393 0.26269,0.27561l0.16364,0.24116l-0.02584,-0.29284v-3.79826z"
                    data-paper-data="{&quot;glyphName&quot;:&quot;N&quot;,&quot;glyphIndex&quot;:0,&quot;firstGlyphOfWord&quot;:true,&quot;word&quot;:1}"
                    style="fill: rgb(0, 0, 0);"></path>
                <path
                    d="M382.13147,243.55816c0,-0.43638 0.08469,-0.8498 0.25408,-1.24025c0.16939,-0.39045 0.39906,-0.73209 0.68903,-1.02493c0.28997,-0.29284 0.62874,-0.52538 1.01631,-0.69764c0.38758,-0.17226 0.80243,-0.25838 1.24455,-0.25838c0.43638,0 0.8498,0.08613 1.24025,0.25838c0.39045,0.17226 0.73209,0.4048 1.02493,0.69764c0.29284,0.29284 0.52395,0.63448 0.69333,1.02493c0.16939,0.39045 0.25408,0.80386 0.25408,1.24025c0,0.44213 -0.08469,0.85698 -0.25408,1.24455c-0.16939,0.38758 -0.4005,0.72635 -0.69333,1.01631c-0.29284,0.28997 -0.63448,0.51821 -1.02493,0.68472c-0.39045,0.16651 -0.80386,0.24977 -1.24025,0.24977c-0.44213,0 -0.85698,-0.08326 -1.24455,-0.24977c-0.38758,-0.16651 -0.72635,-0.39475 -1.01631,-0.68472c-0.28997,-0.28997 -0.51964,-0.62874 -0.68903,-1.01631c-0.16939,-0.38758 -0.25408,-0.80243 -0.25408,-1.24455zM383.19085,243.55816c0,0.30432 0.05598,0.58998 0.16795,0.85698c0.11197,0.267 0.267,0.49954 0.46509,0.69764c0.1981,0.1981 0.42777,0.35456 0.68903,0.4694c0.26126,0.11484 0.54404,0.17226 0.84836,0.17226c0.29284,0 0.56988,-0.05742 0.83114,-0.17226c0.26126,-0.11484 0.48806,-0.2713 0.68041,-0.4694c0.19235,-0.1981 0.34451,-0.43064 0.45648,-0.69764c0.11197,-0.267 0.16795,-0.55266 0.16795,-0.85698c0,-0.30432 -0.05742,-0.58998 -0.17226,-0.85698c-0.11484,-0.267 -0.26987,-0.50098 -0.46509,-0.70195c-0.19522,-0.20097 -0.42346,-0.35887 -0.68472,-0.47371c-0.26126,-0.11484 -0.54117,-0.17226 -0.83975,-0.17226c-0.29858,0 -0.5785,0.05742 -0.83975,0.17226c-0.26126,0.11484 -0.48806,0.27274 -0.68041,0.47371c-0.19235,0.20097 -0.34451,0.43495 -0.45648,0.70195c-0.11197,0.267 -0.16795,0.55266 -0.16795,0.85698z"
                    data-paper-data="{&quot;glyphName&quot;:&quot;O&quot;,&quot;glyphIndex&quot;:1,&quot;lastGlyphOfWord&quot;:true,&quot;word&quot;:1}"
                    style="fill: rgb(0, 0, 0);"></path>
                <path d="M373.65054,259.37469v-6.27875h1.05077v5.27966h3.04894v0.99909z"
                    data-paper-data="{&quot;glyphName&quot;:&quot;L&quot;,&quot;glyphIndex&quot;:2,&quot;firstGlyphOfWord&quot;:true,&quot;word&quot;:2}"
                    style="fill: rgb(0, 0, 0);"></path>
                <path
                    d="M379.92613,256.24824c0,-0.43638 0.08469,-0.8498 0.25408,-1.24025c0.16939,-0.39045 0.39906,-0.73209 0.68903,-1.02493c0.28997,-0.29284 0.62874,-0.52538 1.01631,-0.69764c0.38758,-0.17226 0.80243,-0.25838 1.24455,-0.25838c0.43638,0 0.8498,0.08613 1.24025,0.25838c0.39045,0.17226 0.73209,0.4048 1.02493,0.69764c0.29284,0.29284 0.52395,0.63448 0.69333,1.02493c0.16939,0.39045 0.25408,0.80386 0.25408,1.24025c0,0.44213 -0.08469,0.85698 -0.25408,1.24455c-0.16939,0.38758 -0.4005,0.72635 -0.69333,1.01631c-0.29284,0.28997 -0.63448,0.51821 -1.02493,0.68472c-0.39045,0.16651 -0.80386,0.24977 -1.24025,0.24977c-0.44213,0 -0.85698,-0.08326 -1.24455,-0.24977c-0.38758,-0.16651 -0.72635,-0.39475 -1.01631,-0.68472c-0.28997,-0.28997 -0.51964,-0.62874 -0.68903,-1.01631c-0.16939,-0.38758 -0.25408,-0.80243 -0.25408,-1.24455zM380.98551,256.24824c0,0.30432 0.05598,0.58998 0.16795,0.85698c0.11197,0.267 0.267,0.49954 0.46509,0.69764c0.1981,0.1981 0.42777,0.35456 0.68903,0.4694c0.26126,0.11484 0.54404,0.17226 0.84836,0.17226c0.29284,0 0.56988,-0.05742 0.83114,-0.17226c0.26126,-0.11484 0.48806,-0.2713 0.68041,-0.4694c0.19235,-0.1981 0.34451,-0.43064 0.45648,-0.69764c0.11197,-0.267 0.16795,-0.55266 0.16795,-0.85698c0,-0.30432 -0.05742,-0.58998 -0.17226,-0.85698c-0.11484,-0.267 -0.26987,-0.50098 -0.46509,-0.70195c-0.19522,-0.20097 -0.42346,-0.35887 -0.68472,-0.47371c-0.26126,-0.11484 -0.54117,-0.17226 -0.83975,-0.17226c-0.29858,0 -0.5785,0.05742 -0.83975,0.17226c-0.26126,0.11484 -0.48806,0.27274 -0.68041,0.47371c-0.19235,0.20097 -0.34451,0.43495 -0.45648,0.70195c-0.11197,0.267 -0.16795,0.55266 -0.16795,0.85698z"
                    data-paper-data="{&quot;glyphName&quot;:&quot;O&quot;,&quot;glyphIndex&quot;:3,&quot;word&quot;:2}"
                    style="fill: rgb(0, 0, 0);"></path>
                <path
                    d="M394.82363,253.09594v6.57159c-0.04019,-0.05168 -0.12919,-0.14642 -0.267,-0.28422c-0.13781,-0.13781 -0.30719,-0.30288 -0.50816,-0.49524c-0.20097,-0.19235 -0.42346,-0.4048 -0.66749,-0.63735c-0.24403,-0.23255 -0.49237,-0.46796 -0.74501,-0.70625c-0.25264,-0.23829 -0.49954,-0.47227 -0.7407,-0.70195c-0.24116,-0.22968 -0.46079,-0.44069 -0.65888,-0.63304c-0.1981,-0.19235 -0.36461,-0.356 -0.49954,-0.49093c-0.13493,-0.13493 -0.2225,-0.22824 -0.26269,-0.27992c-0.00574,-0.01148 -0.02871,-0.04163 -0.0689,-0.09043c-0.04019,-0.04881 -0.07464,-0.09331 -0.10335,-0.1335l0.02584,0.27561v3.88439h-1.05077v-6.56298c0.04019,0.05168 0.12919,0.14498 0.267,0.27992c0.13781,0.13493 0.30719,0.29714 0.50816,0.48662c0.20097,0.18948 0.42346,0.39619 0.66749,0.62012c0.24403,0.22393 0.49237,0.45217 0.74501,0.68472c0.25264,0.23255 0.49954,0.46222 0.7407,0.68903c0.24116,0.2268 0.46222,0.43351 0.66319,0.62012c0.20097,0.18661 0.36892,0.34595 0.50385,0.47801c0.13493,0.13206 0.2225,0.22393 0.26269,0.27561l0.16364,0.24116l-0.02584,-0.29284v-3.79826z"
                    data-paper-data="{&quot;glyphName&quot;:&quot;N&quot;,&quot;glyphIndex&quot;:4,&quot;word&quot;:2}"
                    style="fill: rgb(0, 0, 0);"></path>
                <path
                    d="M402.90945,256.32575v2.66998c-0.24116,0.14355 -0.53256,0.25408 -0.8742,0.33159c-0.34164,0.07752 -0.69046,0.11627 -1.04646,0.11627c-0.4938,0 -0.94023,-0.07752 -1.3393,-0.23255c-0.39906,-0.15503 -0.73927,-0.36748 -1.02062,-0.63735c-0.28135,-0.26987 -0.49667,-0.59141 -0.64596,-0.96464c-0.14929,-0.37322 -0.22393,-0.7809 -0.22393,-1.22302c0,-0.49954 0.089,-0.95459 0.267,-1.36513c0.178,-0.41054 0.41772,-0.76367 0.71917,-1.05938c0.30145,-0.29571 0.6517,-0.52538 1.05077,-0.68903c0.39906,-0.16364 0.81965,-0.24547 1.26178,-0.24547c0.14929,0 0.30576,0.01005 0.4694,0.03014c0.16364,0.0201 0.32585,0.05024 0.48662,0.09043c0.16077,0.04019 0.3158,0.08756 0.46509,0.14211c0.14929,0.05455 0.28422,0.11914 0.4048,0.19379l-0.51677,0.86128c-0.08039,-0.05168 -0.17656,-0.09618 -0.28853,-0.1335c-0.11197,-0.03732 -0.22824,-0.07034 -0.34882,-0.09905c-0.12058,-0.02871 -0.23972,-0.05024 -0.35743,-0.0646c-0.11771,-0.01435 -0.22824,-0.02153 -0.33159,-0.02153c-0.29284,0 -0.57275,0.05885 -0.83975,0.17656c-0.267,0.11771 -0.50385,0.27705 -0.71056,0.47801c-0.20671,0.20097 -0.37179,0.44069 -0.49524,0.71917c-0.12345,0.27848 -0.18518,0.57562 -0.18518,0.89143c0,0.28709 0.05455,0.55983 0.16364,0.81822c0.1091,0.25838 0.26126,0.48662 0.45648,0.68472c0.19522,0.1981 0.42777,0.356 0.69764,0.47371c0.26987,0.11771 0.56558,0.17656 0.88712,0.17656c0.11484,0 0.25838,-0.01005 0.43064,-0.03014c0.17226,-0.0201 0.3359,-0.05598 0.49093,-0.10766v-1.06799h-1.17134v-0.91296z"
                    data-paper-data="{&quot;glyphName&quot;:&quot;G&quot;,&quot;glyphIndex&quot;:5,&quot;word&quot;:2}"
                    style="fill: rgb(0, 0, 0);"></path>
                <path
                    d="M405.97667,259.37469v-6.27875h4.16861v0.95602h-3.11784v1.68811h2.77333v0.98186h-2.77333v1.67089h3.23842v0.98186z"
                    data-paper-data="{&quot;glyphName&quot;:&quot;E&quot;,&quot;glyphIndex&quot;:6,&quot;word&quot;:2}"
                    style="fill: rgb(0, 0, 0);"></path>
                <path
                    d="M413.19075,259.37469v-6.27875h1.77424c0.34451,0 0.65888,0.04594 0.9431,0.13781c0.28422,0.09187 0.52538,0.22393 0.72348,0.39619c0.1981,0.17226 0.35169,0.38471 0.46079,0.63735c0.1091,0.25264 0.16364,0.53687 0.16364,0.85267c0,0.17226 -0.01723,0.34451 -0.05168,0.51677c-0.03445,0.17226 -0.089,0.33877 -0.16364,0.49954c-0.07464,0.16077 -0.17226,0.30863 -0.29284,0.44356c-0.12058,0.13493 -0.26413,0.25121 -0.43064,0.34882c0.12632,0.20097 0.24977,0.39763 0.37035,0.58998c0.12058,0.19235 0.24259,0.38614 0.36605,0.58137c0.12345,0.19522 0.25121,0.39619 0.38327,0.6029c0.13206,0.20671 0.27561,0.43064 0.43064,0.6718h-1.26609c-0.25838,-0.40193 -0.50242,-0.78233 -0.73209,-1.1412c-0.22968,-0.35887 -0.45074,-0.69907 -0.66319,-1.02062h-0.08613h-0.87851v2.16182zM414.24151,256.2224h0.84406c0.21819,0 0.39906,-0.03732 0.54261,-0.11197c0.14355,-0.07464 0.25838,-0.16508 0.34451,-0.2713c0.08613,-0.10622 0.14642,-0.22106 0.18087,-0.34451c0.03445,-0.12345 0.05168,-0.23685 0.05168,-0.34021c0,-0.09761 -0.01579,-0.20814 -0.04737,-0.33159c-0.03158,-0.12345 -0.089,-0.23972 -0.17226,-0.34882c-0.08326,-0.1091 -0.19666,-0.20097 -0.34021,-0.27561c-0.14355,-0.07464 -0.32729,-0.11197 -0.55122,-0.11197h-0.85267z"
                    data-paper-data="{&quot;glyphName&quot;:&quot;R&quot;,&quot;glyphIndex&quot;:7,&quot;lastGlyphOfWord&quot;:true,&quot;word&quot;:2}"
                    style="fill: rgb(0, 0, 0);"></path>
                <path d="M427.86617,253.09594v1.0077h-1.55031v5.27105h-1.05938v-5.27105h-1.51586v-1.0077z"
                    data-paper-data="{&quot;glyphName&quot;:&quot;T&quot;,&quot;glyphIndex&quot;:8,&quot;firstGlyphOfWord&quot;:true,&quot;word&quot;:3}"
                    style="fill: rgb(0, 0, 0);"></path>
                <path
                    d="M430.83636,259.37469v-6.27875h1.05938v2.6183h2.99726v-2.6183h1.06799c0,0.0689 0,0.26126 0,0.57706c0,0.3158 0,0.6962 0,1.1412c0,0.445 -0.00144,0.9187 -0.00431,1.42112c-0.00287,0.50242 -0.00431,0.97612 -0.00431,1.42112c0,0.445 0,0.8254 0,1.1412c0,0.3158 0,0.50816 0,0.57706h-1.05938v-2.65275h-2.99726v2.65275z"
                    data-paper-data="{&quot;glyphName&quot;:&quot;H&quot;,&quot;glyphIndex&quot;:9,&quot;word&quot;:3}"
                    style="fill: rgb(0, 0, 0);"></path>
                <path
                    d="M443.15615,259.37469c-0.01723,-0.04019 -0.04737,-0.11197 -0.09043,-0.21532c-0.04306,-0.10335 -0.09618,-0.22968 -0.15934,-0.37896c-0.06316,-0.14929 -0.13206,-0.31437 -0.20671,-0.49524c-0.07464,-0.18087 -0.15216,-0.36892 -0.23255,-0.56414h-2.16182l-0.68903,1.65366h-1.04215c0.02297,-0.05168 0.07752,-0.17943 0.16364,-0.38327c0.08613,-0.20384 0.19379,-0.45648 0.32298,-0.75793c0.12919,-0.30145 0.27274,-0.63735 0.43064,-1.0077c0.1579,-0.37035 0.32011,-0.74788 0.48662,-1.13259c0.16651,-0.38471 0.32872,-0.76224 0.48662,-1.13259c0.1579,-0.37035 0.30145,-0.70625 0.43064,-1.0077c0.12919,-0.30145 0.23685,-0.55409 0.32298,-0.75793c0.08613,-0.20384 0.14068,-0.33159 0.16364,-0.38327c0.02297,0.05168 0.07895,0.17943 0.16795,0.38327c0.089,0.20384 0.1981,0.45648 0.32729,0.75793c0.12919,0.30145 0.27274,0.63735 0.43064,1.0077c0.1579,0.37035 0.32011,0.74788 0.48662,1.13259c0.16651,0.38471 0.32872,0.76224 0.48662,1.13259c0.1579,0.37035 0.30145,0.70625 0.43064,1.0077c0.12919,0.30145 0.23685,0.55409 0.32298,0.75793c0.08613,0.20384 0.14068,0.33159 0.16364,0.38327zM440.66705,256.83391h1.42973l-0.62012,-1.49863c-0.00574,-0.00574 -0.0201,-0.0445 -0.04306,-0.11627c-0.02297,-0.07177 -0.04019,-0.13637 -0.05168,-0.19379c-0.01148,0.05742 -0.02871,0.12202 -0.05168,0.19379c-0.02297,0.07177 -0.03445,0.11053 -0.03445,0.11627z"
                    data-paper-data="{&quot;glyphName&quot;:&quot;A&quot;,&quot;glyphIndex&quot;:10,&quot;word&quot;:3}"
                    style="fill: rgb(0, 0, 0);"></path>
                <path
                    d="M452.36065,253.09594v6.57159c-0.04019,-0.05168 -0.12919,-0.14642 -0.267,-0.28422c-0.13781,-0.13781 -0.30719,-0.30288 -0.50816,-0.49524c-0.20097,-0.19235 -0.42346,-0.4048 -0.66749,-0.63735c-0.24403,-0.23255 -0.49237,-0.46796 -0.74501,-0.70625c-0.25264,-0.23829 -0.49954,-0.47227 -0.7407,-0.70195c-0.24116,-0.22968 -0.46079,-0.44069 -0.65888,-0.63304c-0.1981,-0.19235 -0.36461,-0.356 -0.49954,-0.49093c-0.13493,-0.13493 -0.2225,-0.22824 -0.26269,-0.27992c-0.00574,-0.01148 -0.02871,-0.04163 -0.0689,-0.09043c-0.04019,-0.04881 -0.07464,-0.09331 -0.10335,-0.1335l0.02584,0.27561v3.88439h-1.05077v-6.56298c0.04019,0.05168 0.12919,0.14498 0.267,0.27992c0.13781,0.13493 0.30719,0.29714 0.50816,0.48662c0.20097,0.18948 0.42346,0.39619 0.66749,0.62012c0.24403,0.22393 0.49237,0.45217 0.74501,0.68472c0.25264,0.23255 0.49954,0.46222 0.7407,0.68903c0.24116,0.2268 0.46222,0.43351 0.66319,0.62012c0.20097,0.18661 0.36892,0.34595 0.50385,0.47801c0.13493,0.13206 0.2225,0.22393 0.26269,0.27561l0.16364,0.24116l-0.02584,-0.29284v-3.79826z"
                    data-paper-data="{&quot;glyphName&quot;:&quot;N&quot;,&quot;glyphIndex&quot;:11,&quot;lastGlyphOfWord&quot;:true,&quot;word&quot;:3}"
                    style="fill: rgb(0, 0, 0);"></path>
                <path
                    d="M463.10902,259.37469c-0.01723,-0.04019 -0.04737,-0.11197 -0.09043,-0.21532c-0.04306,-0.10335 -0.09618,-0.22968 -0.15934,-0.37896c-0.06316,-0.14929 -0.13206,-0.31437 -0.20671,-0.49524c-0.07464,-0.18087 -0.15216,-0.36892 -0.23255,-0.56414h-2.16182l-0.68903,1.65366h-1.04215c0.02297,-0.05168 0.07752,-0.17943 0.16364,-0.38327c0.08613,-0.20384 0.19379,-0.45648 0.32298,-0.75793c0.12919,-0.30145 0.27274,-0.63735 0.43064,-1.0077c0.1579,-0.37035 0.32011,-0.74788 0.48662,-1.13259c0.16651,-0.38471 0.32872,-0.76224 0.48662,-1.13259c0.1579,-0.37035 0.30145,-0.70625 0.43064,-1.0077c0.12919,-0.30145 0.23685,-0.55409 0.32298,-0.75793c0.08613,-0.20384 0.14068,-0.33159 0.16364,-0.38327c0.02297,0.05168 0.07895,0.17943 0.16795,0.38327c0.089,0.20384 0.1981,0.45648 0.32729,0.75793c0.12919,0.30145 0.27274,0.63735 0.43064,1.0077c0.1579,0.37035 0.32011,0.74788 0.48662,1.13259c0.16651,0.38471 0.32872,0.76224 0.48662,1.13259c0.1579,0.37035 0.30145,0.70625 0.43064,1.0077c0.12919,0.30145 0.23685,0.55409 0.32298,0.75793c0.08613,0.20384 0.14068,0.33159 0.16364,0.38327zM460.61992,256.83391h1.42973l-0.62012,-1.49863c-0.00574,-0.00574 -0.0201,-0.0445 -0.04306,-0.11627c-0.02297,-0.07177 -0.04019,-0.13637 -0.05168,-0.19379c-0.01148,0.05742 -0.02871,0.12202 -0.05168,0.19379c-0.02297,0.07177 -0.03445,0.11053 -0.03445,0.11627z"
                    data-paper-data="{&quot;glyphName&quot;:&quot;A&quot;,&quot;glyphIndex&quot;:12,&quot;firstGlyphOfWord&quot;:true,&quot;lastGlyphOfWord&quot;:true,&quot;word&quot;:4}"
                    style="fill: rgb(0, 0, 0);"></path>
                <path
                    d="M373.65054,265.51041c0.02871,0.04019 0.09187,0.13063 0.18948,0.2713c0.09761,0.14068 0.21963,0.31293 0.36605,0.51677c0.14642,0.20384 0.31006,0.42921 0.49093,0.67611c0.18087,0.2469 0.36461,0.49811 0.55122,0.75362c0.18661,0.25551 0.36892,0.50529 0.54691,0.74932c0.178,0.24403 0.33877,0.46653 0.48232,0.66749c0.14355,0.20097 0.26556,0.36892 0.36605,0.50385c0.10048,0.13493 0.16221,0.21963 0.18518,0.25408c0.01148,-0.01723 0.06316,-0.09043 0.15503,-0.21963c0.09187,-0.12919 0.20814,-0.2914 0.34882,-0.48662c0.14068,-0.19522 0.30001,-0.41772 0.47801,-0.66749c0.178,-0.24977 0.36174,-0.50385 0.55122,-0.76224c0.18948,-0.25838 0.37466,-0.5139 0.55553,-0.76654c0.18087,-0.25264 0.34738,-0.48232 0.49954,-0.68903c0.15216,-0.20671 0.27992,-0.38184 0.38327,-0.52538c0.10335,-0.14355 0.16939,-0.23542 0.1981,-0.27561v6.55436h-1.12828v-3.20397c0,-0.04594 0.00574,-0.09474 0.01723,-0.14642c0.01148,-0.05168 0.01723,-0.08326 0.01723,-0.09474l-2.07569,2.98865c-0.02871,-0.03445 -0.09905,-0.12919 -0.21101,-0.28422c-0.11197,-0.15503 -0.24547,-0.33877 -0.4005,-0.55122c-0.15503,-0.21245 -0.31867,-0.44069 -0.49093,-0.68472c-0.17226,-0.24403 -0.33446,-0.47083 -0.48662,-0.68041c-0.15216,-0.20958 -0.28135,-0.38758 -0.38758,-0.534c-0.10622,-0.14642 -0.16508,-0.23111 -0.17656,-0.25408c0,0.01148 0.00574,0.04306 0.01723,0.09474c0.01148,0.05168 0.01723,0.10048 0.01723,0.14642v3.20397h-1.05938z"
                    data-paper-data="{&quot;glyphName&quot;:&quot;M&quot;,&quot;glyphIndex&quot;:13,&quot;firstGlyphOfWord&quot;:true,&quot;word&quot;:5}"
                    style="fill: rgb(0, 0, 0);"></path>
                <path d="M383.32336,265.78602h1.05938v6.27875h-1.05938z"
                    data-paper-data="{&quot;glyphName&quot;:&quot;I&quot;,&quot;glyphIndex&quot;:14,&quot;word&quot;:5}"
                    style="fill: rgb(0, 0, 0);"></path>
                <path
                    d="M393.24974,265.78602v6.57159c-0.04019,-0.05168 -0.12919,-0.14642 -0.267,-0.28422c-0.13781,-0.13781 -0.30719,-0.30288 -0.50816,-0.49524c-0.20097,-0.19235 -0.42346,-0.4048 -0.66749,-0.63735c-0.24403,-0.23255 -0.49237,-0.46796 -0.74501,-0.70625c-0.25264,-0.23829 -0.49954,-0.47227 -0.7407,-0.70195c-0.24116,-0.22968 -0.46079,-0.44069 -0.65888,-0.63304c-0.1981,-0.19235 -0.36461,-0.356 -0.49954,-0.49093c-0.13493,-0.13493 -0.2225,-0.22824 -0.26269,-0.27992c-0.00574,-0.01148 -0.02871,-0.04163 -0.0689,-0.09043c-0.04019,-0.04881 -0.07464,-0.09331 -0.10335,-0.1335l0.02584,0.27561v3.88439h-1.05077v-6.56298c0.04019,0.05168 0.12919,0.14498 0.267,0.27992c0.13781,0.13493 0.30719,0.29714 0.50816,0.48662c0.20097,0.18948 0.42346,0.39619 0.66749,0.62012c0.24403,0.22393 0.49237,0.45217 0.74501,0.68472c0.25264,0.23255 0.49954,0.46222 0.7407,0.68903c0.24116,0.2268 0.46222,0.43351 0.66319,0.62012c0.20097,0.18661 0.36892,0.34595 0.50385,0.47801c0.13493,0.13206 0.2225,0.22393 0.26269,0.27561l0.16364,0.24116l-0.02584,-0.29284v-3.79826z"
                    data-paper-data="{&quot;glyphName&quot;:&quot;N&quot;,&quot;glyphIndex&quot;:15,&quot;word&quot;:5}"
                    style="fill: rgb(0, 0, 0);"></path>
                <path
                    d="M398.96091,272.13368c-0.33877,0 -0.65601,-0.05598 -0.95172,-0.16795c-0.29571,-0.11197 -0.55266,-0.26843 -0.77085,-0.4694c-0.21819,-0.20097 -0.39045,-0.44356 -0.51677,-0.72778c-0.12632,-0.28422 -0.18948,-0.59859 -0.18948,-0.9431v-4.03942h1.05077v4.01358c0,0.18374 0.03589,0.356 0.10766,0.51677c0.07177,0.16077 0.16939,0.30145 0.29284,0.42203c0.12345,0.12058 0.26843,0.21676 0.43495,0.28853c0.16651,0.07177 0.34738,0.10766 0.54261,0.10766c0.19522,0 0.37753,-0.03589 0.54691,-0.10766c0.16939,-0.07177 0.31724,-0.16795 0.44356,-0.28853c0.12632,-0.12058 0.22537,-0.26126 0.29714,-0.42203c0.07177,-0.16077 0.10766,-0.33303 0.10766,-0.51677v-4.01358h1.05077v4.03942c0,0.34451 -0.06316,0.65888 -0.18948,0.9431c-0.12632,0.28422 -0.30001,0.52682 -0.52108,0.72778c-0.22106,0.20097 -0.48088,0.35743 -0.77946,0.4694c-0.29858,0.11197 -0.61725,0.16795 -0.95602,0.16795z"
                    data-paper-data="{&quot;glyphName&quot;:&quot;U&quot;,&quot;glyphIndex&quot;:16,&quot;word&quot;:5}"
                    style="fill: rgb(0, 0, 0);"></path>
                <path d="M408.44017,265.78602v1.0077h-1.55031v5.27105h-1.05938v-5.27105h-1.51586v-1.0077z"
                    data-paper-data="{&quot;glyphName&quot;:&quot;T&quot;,&quot;glyphIndex&quot;:17,&quot;word&quot;:5}"
                    style="fill: rgb(0, 0, 0);"></path>
                <path
                    d="M411.40531,272.06478v-6.27875h4.16861v0.95602h-3.11784v1.68811h2.77333v0.98186h-2.77333v1.67089h3.23842v0.98186z"
                    data-paper-data="{&quot;glyphName&quot;:&quot;E&quot;,&quot;glyphIndex&quot;:18,&quot;lastGlyphOfWord&quot;:true,&quot;word&quot;:5}"
                    style="fill: rgb(0, 0, 0);"></path>
                <path
                    d="M422.40863,265.5018h0.88712v5.11602h-0.88712zM422.85649,272.15091c-0.13781,0 -0.26126,-0.05168 -0.37035,-0.15503c-0.1091,-0.10335 -0.16364,-0.23255 -0.16364,-0.38758c0,-0.15503 0.05455,-0.28135 0.16364,-0.37896c0.1091,-0.09761 0.23255,-0.14642 0.37035,-0.14642c0.12632,0 0.24403,0.04881 0.35313,0.14642c0.1091,0.09761 0.16364,0.22393 0.16364,0.37896c0,0.15503 -0.05455,0.28422 -0.16364,0.38758c-0.1091,0.10335 -0.2268,0.15503 -0.35313,0.15503z"
                    data-paper-data="{&quot;glyphName&quot;:&quot;!&quot;,&quot;glyphIndex&quot;:19,&quot;firstGlyphOfWord&quot;:true,&quot;lastGlyphOfWord&quot;:true,&quot;word&quot;:6}"
                    style="fill: rgb(0, 0, 0);"></path>
            </g>
            <g data-paper-data="{&quot;stacked&quot;:true,&quot;isPrimaryText&quot;:true}" fill-rule="nonzero"
                style="fill: rgb(0, 0, 0); opacity: 1;">
                <path
                    d="M166.87935,230.55383l8.618,-12.97358c-2.09627,-0.41925 -3.73058,-1.44798 -4.90294,-3.08618c-1.17236,-1.6382 -1.75854,-3.83928 -1.75854,-6.60325c0,-3.40062 0.95109,-5.84626 2.85326,-7.33695c1.90217,-1.49068 4.94176,-2.23602 9.11878,-2.23602h11.73911v32.23598h-6.59161v-12.20495h-3.33074l-8.22204,12.20495zM175.49735,208.17032c0,1.22671 0.17469,2.13509 0.52407,2.72515c0.34938,0.59006 0.92003,1.02484 1.71195,1.30435c0.79192,0.2795 1.92546,0.41925 3.40062,0.41925h4.82142v-8.59471h-5.10092c-1.90994,0 -3.28027,0.2795 -4.11102,0.83851c-0.83074,0.55901 -1.24612,1.66149 -1.24612,3.30745z"
                    data-paper-data="{&quot;glyphName&quot;:&quot;Я&quot;,&quot;glyphIndex&quot;:0,&quot;firstGlyphOfWord&quot;:true,&quot;word&quot;:1,&quot;line&quot;:1,&quot;firstGlyphOfFirstLine&quot;:true}"
                    style="fill: rgb(0, 0, 0);"></path>
                <path
                    d="M199.51129,230.55383v-32.23598h20.93941v5.79968h-14.3711v6.87111h12.11178v5.82297h-12.11178v7.73291h14.3711v6.00931z"
                    data-paper-data="{&quot;glyphName&quot;:&quot;E&quot;,&quot;glyphIndex&quot;:1,&quot;word&quot;:1,&quot;line&quot;:1}"
                    style="fill: rgb(0, 0, 0);"></path>
                <path
                    d="M223.40877,230.55383l10.66769,-32.23598h8.54812l10.69098,32.23598h-6.73136l-2.14285,-6.54502h-12.41458l-2.09627,6.54502zM233.89012,218.25571h8.68788l-4.33229,-13.32296z"
                    data-paper-data="{&quot;glyphName&quot;:&quot;A&quot;,&quot;glyphIndex&quot;:2,&quot;word&quot;:1,&quot;line&quot;:1}"
                    style="fill: rgb(0, 0, 0);"></path>
                <path
                    d="M283.17576,225.21999c-1.38199,2.06521 -3.07841,3.58307 -5.08928,4.55356c-2.01087,0.9705 -4.48369,1.45574 -7.41847,1.45574c-9.98446,0 -14.97669,-5.59782 -14.97669,-16.79345c0,-5.72981 1.26553,-9.96117 3.79658,-12.69408c2.53105,-2.73292 6.18012,-4.09937 10.94719,-4.09937c3.15217,0 5.72204,0.53183 7.70962,1.59549c1.98757,1.06366 3.50155,2.45729 4.54192,4.18089l-5.10092,3.95962c-0.74534,-1.11801 -1.42857,-1.92546 -2.04969,-2.42236c-0.62112,-0.49689 -1.32764,-0.86956 -2.11956,-1.11801c-0.79192,-0.24845 -1.73913,-0.37267 -2.84161,-0.37267c-2.63975,0 -4.65061,0.84239 -6.0326,2.52717c-1.38199,1.68478 -2.07298,4.49922 -2.07298,8.44331c0,3.68012 0.64829,6.42856 1.94487,8.24533c1.29658,1.81677 3.36568,2.72515 6.20729,2.72515c1.90994,0 3.39673,-0.36491 4.4604,-1.09472c1.06366,-0.72981 2.03028,-1.70031 2.89984,-2.91149z"
                    data-paper-data="{&quot;glyphName&quot;:&quot;C&quot;,&quot;glyphIndex&quot;:3,&quot;word&quot;:1,&quot;line&quot;:1}"
                    style="fill: rgb(0, 0, 0);"></path>
                <path d="M301.80928,204.32716v26.22667h-6.56831v-26.22667h-9.92235v-6.00931h26.413v6.00931z"
                    data-paper-data="{&quot;glyphName&quot;:&quot;T&quot;,&quot;glyphIndex&quot;:4,&quot;lastGlyphOfWord&quot;:true,&quot;word&quot;:1,&quot;line&quot;:1}"
                    style="fill: rgb(0, 0, 0);"></path>
                <path
                    d="M348.10191,230.55383l-15.97824,-28.76549v28.76549h-3.05124v-32.23598h4.56521l15.06985,27.13505v-27.13505h3.12111v32.23598z"
                    data-paper-data="{&quot;glyphName&quot;:&quot;N&quot;,&quot;glyphIndex&quot;:5,&quot;firstGlyphOfWord&quot;:true,&quot;word&quot;:2,&quot;fontStyleEffect&quot;:true,&quot;line&quot;:1}"
                    style="fill: rgb(0, 0, 0);"></path>
                <path
                    d="M359.21214,230.55383l11.18011,-32.23598h4.05279l11.24998,32.23598h-3.42391l-3.14441,-9.29346h-13.46271l-3.14441,9.29346zM366.61896,218.39546h11.4829l-5.7531,-17.02637z"
                    data-paper-data="{&quot;glyphName&quot;:&quot;A&quot;,&quot;glyphIndex&quot;:6,&quot;word&quot;:2,&quot;fontStyleEffect&quot;:true,&quot;line&quot;:1}"
                    style="fill: rgb(0, 0, 0);"></path>
                <path d="M399.78662,201.15946v29.39437h-3.14441v-29.39437h-11.06365v-2.84161h25.2717v2.84161z"
                    data-paper-data="{&quot;glyphName&quot;:&quot;T&quot;,&quot;glyphIndex&quot;:7,&quot;word&quot;:2,&quot;fontStyleEffect&quot;:true,&quot;line&quot;:1}"
                    style="fill: rgb(0, 0, 0);"></path>
                <path
                    d="M428.37741,230.55383h-11.97203v-2.77174h4.40217v-26.7158h-4.40217v-2.74844h11.97203v2.74844h-4.42546v26.7158h4.42546z"
                    data-paper-data="{&quot;glyphName&quot;:&quot;I&quot;,&quot;glyphIndex&quot;:8,&quot;word&quot;:2,&quot;fontStyleEffect&quot;:true,&quot;line&quot;:1}"
                    style="fill: rgb(0, 0, 0);"></path>
                <path
                    d="M448.92086,230.55383h-3.95962l-10.59781,-32.23598h3.30745l9.34005,28.90524l9.45651,-28.90524h3.23757z"
                    data-paper-data="{&quot;glyphName&quot;:&quot;V&quot;,&quot;glyphIndex&quot;:9,&quot;word&quot;:2,&quot;fontStyleEffect&quot;:true,&quot;line&quot;:1}"
                    style="fill: rgb(0, 0, 0);"></path>
                <path
                    d="M465.92394,230.55383v-32.23598h19.07606v2.84161h-15.93165v10.87731h13.69563v2.8649h-13.69563v12.78725h15.93165v2.8649z"
                    data-paper-data="{&quot;glyphName&quot;:&quot;E&quot;,&quot;glyphIndex&quot;:10,&quot;lastGlyphOfWord&quot;:true,&quot;word&quot;:2,&quot;fontStyleEffect&quot;:true,&quot;line&quot;:1,&quot;lastGlyphOfFirstLine&quot;:true}"
                    style="fill: rgb(0, 0, 0);"></path>
                <path
                    d="M195.59825,272.35761h-4.09937l-6.54502,-28.04344l-6.59161,28.04344h-3.95962l-7.52328,-32.23598h3.19099l6.45185,27.99685l6.47515,-27.99685h3.91304l6.68477,28.22977l6.47515,-28.22977h3.09782z"
                    data-paper-data="{&quot;glyphName&quot;:&quot;W&quot;,&quot;glyphIndex&quot;:11,&quot;firstGlyphOfWord&quot;:true,&quot;word&quot;:2,&quot;fontStyleEffect&quot;:true,&quot;line&quot;:2,&quot;firstGlyphOfSecondLine&quot;:true}"
                    style="fill: rgb(0, 0, 0);"></path>
                <path
                    d="M210.79621,272.35761v-32.23598h19.07606v2.84161h-15.93165v10.87731h13.69563v2.8649h-13.69563v12.78725h15.93165v2.8649z"
                    data-paper-data="{&quot;glyphName&quot;:&quot;E&quot;,&quot;glyphIndex&quot;:12,&quot;word&quot;:2,&quot;fontStyleEffect&quot;:true,&quot;line&quot;:2}"
                    style="fill: rgb(0, 0, 0);"></path>
                <path
                    d="M259.814,262.85452c0,1.66149 -0.26397,3.09006 -0.79192,4.28571c-0.52795,1.19565 -1.30046,2.18167 -2.31754,2.95807c-1.01708,0.7764 -2.27484,1.34705 -3.77329,1.71195c-1.49845,0.36491 -3.2104,0.54736 -5.13586,0.54736h-9.66613v-32.23598h9.2003c1.94099,0 3.57142,0.1514 4.8913,0.45419c1.31987,0.30279 2.38354,0.75699 3.19099,1.36258c0.80745,0.60559 1.38587,1.35869 1.73525,2.25931c0.34938,0.90062 0.52407,1.95652 0.52407,3.1677c0,1.04037 -0.1087,1.9604 -0.32609,2.76009c-0.21739,0.79969 -0.5396,1.49845 -0.96661,2.09627c-0.42702,0.59783 -0.9472,1.10248 -1.56056,1.51397c-0.61335,0.41149 -1.31599,0.74922 -2.10792,1.0132c1.00932,0.13975 1.94875,0.39984 2.81832,0.78028c0.86956,0.38043 1.62267,0.90062 2.25931,1.56056c0.63665,0.65994 1.13354,1.46351 1.49068,2.41071c0.35714,0.9472 0.53571,2.06521 0.53571,3.35403zM254.38698,248.08746c0,-0.97826 -0.13199,-1.79736 -0.39596,-2.45729c-0.26397,-0.65994 -0.69876,-1.19177 -1.30435,-1.59549c-0.60559,-0.40373 -1.40528,-0.69099 -2.39906,-0.8618c-0.99379,-0.17081 -2.22049,-0.25621 -3.68012,-0.25621h-5.33384v11.01706h5.14751c2.74844,0 4.76319,-0.46196 6.04425,-1.38587c1.28105,-0.92391 1.92158,-2.41071 1.92158,-4.4604zM256.48325,262.85452c0,-1.3354 -0.21739,-2.40295 -0.65217,-3.20264c-0.43478,-0.79969 -1.0559,-1.41692 -1.86335,-1.85171c-0.80745,-0.43478 -1.77407,-0.71817 -2.89984,-0.85015c-1.12577,-0.13199 -2.38742,-0.19798 -3.78493,-0.19798h-6.00931v12.74066h5.10092c1.58385,0 3.00077,-0.0854 4.25077,-0.25621c1.25,-0.17081 2.30978,-0.49301 3.17934,-0.96661c0.86956,-0.4736 1.53338,-1.14518 1.99146,-2.01475c0.45807,-0.86956 0.68711,-2.0031 0.68711,-3.40062z"
                    data-paper-data="{&quot;glyphName&quot;:&quot;B&quot;,&quot;glyphIndex&quot;:13,&quot;lastGlyphOfWord&quot;:true,&quot;word&quot;:2,&quot;fontStyleEffect&quot;:true,&quot;line&quot;:2}"
                    style="fill: rgb(0, 0, 0);"></path>
                <path
                    d="M277.16645,272.35761l11.18011,-32.23598h4.05279l11.24998,32.23598h-3.42391l-3.14441,-9.29346h-13.46271l-3.14441,9.29346zM284.57328,260.19925h11.4829l-5.7531,-17.02637z"
                    data-paper-data="{&quot;glyphName&quot;:&quot;A&quot;,&quot;glyphIndex&quot;:14,&quot;firstGlyphOfWord&quot;:true,&quot;word&quot;:2,&quot;fontStyleEffect&quot;:true,&quot;line&quot;:2}"
                    style="fill: rgb(0, 0, 0);"></path>
                <path
                    d="M331.07554,250.18373c0,1.95652 -0.22515,3.61801 -0.67546,4.98446c-0.45031,1.36646 -1.13742,2.48059 -2.06133,3.34239c-0.92391,0.8618 -2.08462,1.4868 -3.48214,1.875c-1.39751,0.3882 -3.04347,0.5823 -4.93788,0.5823h-5.38043v11.38973h-3.14441v-32.23598h8.92079c3.69565,0 6.41303,0.83463 8.15216,2.50388c1.73913,1.66925 2.60869,4.18866 2.60869,7.55822zM327.69821,250.2769c0,-1.39751 -0.17469,-2.56599 -0.52407,-3.50543c-0.34938,-0.93944 -0.85404,-1.68866 -1.51397,-2.24767c-0.65994,-0.55901 -1.46351,-0.95885 -2.41071,-1.19953c-0.9472,-0.24068 -2.02639,-0.36102 -3.23757,-0.36102h-5.47359v15.13973h4.86801c1.4441,0 2.68633,-0.11646 3.7267,-0.34938c1.04037,-0.23292 1.89829,-0.64053 2.57375,-1.22282c0.67546,-0.5823 1.17624,-1.3781 1.50233,-2.38742c0.32609,-1.00932 0.48913,-2.29813 0.48913,-3.86645z"
                    data-paper-data="{&quot;glyphName&quot;:&quot;P&quot;,&quot;glyphIndex&quot;:15,&quot;word&quot;:2,&quot;fontStyleEffect&quot;:true,&quot;line&quot;:2}"
                    style="fill: rgb(0, 0, 0);"></path>
                <path
                    d="M359.93419,250.18373c0,1.95652 -0.22515,3.61801 -0.67546,4.98446c-0.45031,1.36646 -1.13742,2.48059 -2.06133,3.34239c-0.92391,0.8618 -2.08462,1.4868 -3.48214,1.875c-1.39751,0.3882 -3.04347,0.5823 -4.93788,0.5823h-5.38043v11.38973h-3.14441v-32.23598h8.92079c3.69565,0 6.41303,0.83463 8.15216,2.50388c1.73913,1.66925 2.60869,4.18866 2.60869,7.55822zM356.55687,250.2769c0,-1.39751 -0.17469,-2.56599 -0.52407,-3.50543c-0.34938,-0.93944 -0.85404,-1.68866 -1.51397,-2.24767c-0.65994,-0.55901 -1.46351,-0.95885 -2.41071,-1.19953c-0.9472,-0.24068 -2.02639,-0.36102 -3.23757,-0.36102h-5.47359v15.13973h4.86801c1.4441,0 2.68633,-0.11646 3.7267,-0.34938c1.04037,-0.23292 1.89829,-0.64053 2.57375,-1.22282c0.67546,-0.5823 1.17624,-1.3781 1.50233,-2.38742c0.32609,-1.00932 0.48913,-2.29813 0.48913,-3.86645z"
                    data-paper-data="{&quot;glyphName&quot;:&quot;P&quot;,&quot;glyphIndex&quot;:16,&quot;lastGlyphOfWord&quot;:true,&quot;word&quot;:2,&quot;fontStyleEffect&quot;:true,&quot;line&quot;:2,&quot;lastGlyphOfSecondLine&quot;:true}"
                    style="fill: rgb(0, 0, 0);"></path>
            </g>
            <g data-paper-data="{&quot;fillRule&quot;:&quot;evenodd&quot;,&quot;isIcon&quot;:true,&quot;iconStyle&quot;:&quot;standalone&quot;,&quot;selectedEffects&quot;:{&quot;container&quot;:&quot;&quot;,&quot;transformation&quot;:&quot;&quot;,&quot;pattern&quot;:&quot;&quot;},&quot;bounds&quot;:{&quot;x&quot;:65,&quot;y&quot;:197.64238272757413,&quot;width&quot;:74.715227073329,&quot;height&quot;:74.71523454485171},&quot;iconType&quot;:&quot;icon&quot;,&quot;rawIconId&quot;:&quot;559090&quot;}"
                fill-rule="evenodd" style="fill: rgb(0, 0, 0); opacity: 1;">
                <path
                    d="M73.0052,197.64239h15.03199c4.35839,0 8.09415,3.55787 8.09415,8.0052v15.03199c0,4.35839 -3.73576,8.09415 -8.09415,8.09415h-15.03199c-4.44733,0 -8.0052,-3.73576 -8.0052,-8.09415c0,-1.06736 0.88947,-2.04577 1.95683,-2.13472c1.06736,0 1.95683,0.80052 1.95683,1.86788c0,2.31262 1.86788,3.91365 4.09155,3.91365h15.03199c2.22367,0 3.64681,-1.42315 3.64681,-3.64681v-15.03199c0,-2.31262 -1.42315,-4.44733 -3.64681,-4.44733h-15.03199c-2.22367,0 -4.09155,2.04577 -4.09155,4.26944c0,1.06736 -0.88947,2.13472 -1.95683,2.13472c-1.06736,0 -1.95683,-0.88947 -1.95683,-1.95683c0,-4.44733 3.64681,-8.0052 8.0052,-8.0052zM128.59689,228.77373h-15.03199c-4.35839,0 -7.64942,-3.73576 -7.64942,-8.09415v-15.03199c0,-4.44733 3.29103,-8.0052 7.64942,-8.0052h15.03199c4.44733,0 7.56047,3.64681 7.56047,8.0052v15.03199c0,4.35839 -3.20208,8.09415 -7.56047,8.09415zM113.56489,201.20026c-2.22367,0 -4.09155,2.22367 -4.09155,4.44733v15.03199c0,2.22367 1.86788,3.64681 4.09155,3.64681h15.03199c2.31262,0 4.0026,-1.42315 4.0026,-3.64681v-15.03199c0,-2.31262 -1.77893,-4.44733 -4.0026,-4.44733zM126.72901,237.49051l10.6736,10.6736c1.51209,1.42315 2.31262,3.46892 2.31262,5.60364c0,2.13472 -0.80052,4.09155 -2.31262,5.60364l-10.6736,10.6736c-1.51209,1.51209 -3.46892,2.31262 -5.60364,2.31262c-2.13472,0 -4.09155,-0.80052 -5.60364,-2.31262l-10.6736,-10.6736c-1.51209,-1.51209 -2.31262,-3.46892 -2.31262,-5.60364c0,-2.13472 0.80052,-4.09155 2.31262,-5.60364l10.6736,-10.6736c1.51209,-1.51209 3.46892,-2.31262 5.60364,-2.31262c2.13472,0 4.09155,0.80052 5.60364,2.31262zM73.0052,238.55787h15.03199c4.35839,0 8.09415,3.29103 8.09415,7.64942v15.03199c0,4.44733 -3.73576,7.56047 -8.09415,7.56047h-15.03199c-4.44733,0 -8.0052,-3.20208 -8.0052,-7.56047v-15.03199c0,-4.35839 3.64681,-7.64942 8.0052,-7.64942zM123.97166,267.28765l10.6736,-10.6736c1.60104,-1.60104 1.60104,-4.1805 -0.08895,-5.78154l-10.6736,-10.6736c-0.80052,-0.80052 -1.77893,-1.15631 -2.8463,-1.15631c-0.97841,0 -2.04577,0.35579 -2.8463,1.15631l-10.6736,10.6736c-1.60104,1.60104 -1.60104,4.1805 0,5.78154l10.6736,10.6736c1.60104,1.60104 4.1805,1.60104 5.78154,0zM88.0372,265.24187c2.22367,0 3.64681,-1.77893 3.64681,-4.0026v-15.03199c0,-2.22367 -1.42315,-4.09155 -3.64681,-4.09155h-15.03199c-2.31262,0 -4.44733,1.86788 -4.44733,4.09155v15.03199c0,2.31262 2.22367,4.0026 4.44733,4.0026z"
                    data-paper-data="{&quot;isPathIcon&quot;:true}" style="fill: rgb(0, 0, 0);"></path>
            </g>
        </g>
    </g>
</svg>